Coordinates
version=1
nRows=12
nColumns=24
inDegrees=yes

Units are S.I. units (second, meters, Newtons, ...)
Angles are in degrees.

endheader
time	pelvis_tilt	pelvis_list	pelvis_rotation	pelvis_tx	pelvis_ty	pelvis_tz	hip_flexion_r	hip_adduction_r	hip_rotation_r	knee_angle_r	ankle_angle_r	subtalar_angle_r	mtp_angle_r	hip_flexion_l	hip_adduction_l	hip_rotation_l	knee_angle_l	ankle_angle_l	subtalar_angle_l	mtp_angle_l	lumbar_extension	lumbar_bending	lumbar_rotation
      1.04500000	      7.26448748	     -7.23578598	     -3.33564483	     -0.45456306	      0.89570312	      0.02828405	    -30.42137707	      7.27030391	     -1.42163237	     -9.17189262	     11.12742468	      8.94647896	     52.65805864	     15.05373539	     -4.93774661	     -7.81479608	     -4.88985381	     11.45072625	      0.08364668	     29.43186909	    -17.81523093	      6.43453221	      6.01945172
      1.05000000	      7.11056667	     -7.05571814	     -3.43123906	     -0.44569538	      0.89462379	      0.02802656	    -30.15400261	      6.92804496	     -1.19582570	    -10.31735908	     10.67819611	      8.92492160	     53.73562672	     15.28445673	     -4.68764976	     -7.50518575	     -5.49158409	     10.98273074	     -0.63099832	     31.68224778	    -17.58336827	      6.22547272	      5.95734397
      1.05500000	      6.87792966	     -6.85045717	     -3.42489931	     -0.43685370	      0.89347751	      0.02757615	    -29.72571646	      6.61292054	     -1.10375166	    -11.57628256	     10.14245811	      9.08427699	     54.60346765	     15.67234535	     -4.38062775	     -6.99664800	     -6.31849995	     10.67533930	     -1.33040112	     31.93521920	    -17.25495272	      6.02551044	      5.76809088
      1.06000000	      6.68206286	     -6.58127539	     -3.41964860	     -0.42806369	      0.89246023	      0.02713844	    -29.24562788	      6.24335400	     -1.02054989	    -12.96583979	      9.50908604	      8.91167523	     56.99841865	     16.03661417	     -4.00773389	     -6.54130051	     -7.26482505	     10.28974523	     -1.98691845	     32.77289721	    -16.97029889	      5.74373911	      5.58213872
      1.06500000	      6.45120509	     -6.28927210	     -3.37645929	     -0.41932469	      0.89144806	      0.02663498	    -28.66936023	      5.87597600	     -0.91973567	    -14.43612807	      8.82590071	      8.85830571	     58.74213440	     16.51058227	     -3.59978513	     -6.06030554	     -8.42754141	      9.96648592	     -2.69894407	     33.38234551	    -16.64911552	      5.44589694	      5.33668114
      1.07000000	      6.19553007	     -5.98862561	     -3.32093907	     -0.41065301	      0.89049811	      0.02607797	    -27.96565568	      5.50800595	     -0.85569490	    -16.06250998	      7.98853146	      8.78376343	     60.73853050	     17.03025031	     -3.17765570	     -5.58147479	     -9.68606834	      9.59838719	     -3.36142723	     34.01983718	    -16.30757640	      5.14388735	      5.10317632
      1.07500000	      5.85839324	     -5.65165130	     -3.19725285	     -0.40204283	      0.88945436	      0.02539035	    -27.07674098	      5.14391910	     -0.85758482	    -17.86384162	      7.27062812	      8.82518242	     61.35717367	     17.68992787	     -2.69318216	     -4.99118159	    -11.09086915	      9.36043588	     -3.97182462	     34.12638655	    -15.87330164	      4.82466182	      4.77686968
      1.08000000	      5.57153061	     -5.28737848	     -3.00698243	     -0.39345800	      0.88854393	      0.02467859	    -26.20185319	      4.80017587	     -0.87351646	    -19.67524186	      6.22596376	      8.33005787	     63.92117675	     18.31482958	     -2.16327216	     -4.42708937	    -12.56671170	      9.05895090	     -4.54178792	     34.73379489	    -15.49468679	      4.47147917	      4.35211516
      1.08500000	      5.23920259	     -4.88737966	     -2.89076118	     -0.38495411	      0.88763927	      0.02397668	    -25.14769261	      4.37328584	     -0.87634912	    -21.72598754	      5.36551655	      8.29342342	     64.44758198	     18.97097751	     -1.61012258	     -3.95336189	    -14.06729132	      8.83768764	     -5.04761993	     34.79318659	    -15.07757181	      4.07057468	      4.07030179
      1.09000000	      4.92974720	     -4.49211705	     -2.68547085	     -0.37646495	      0.88681086	      0.02321542	    -24.07574176	      4.00820678	     -0.91240795	    -23.79029147	      4.15660963	      7.70751357	     66.68535561	     19.59455545	     -1.03825194	     -3.43990921	    -15.56878084	      8.67119500	     -5.44592519	     35.14230005	    -14.68588723	      3.68193559	      3.63297446
      1.09500000	      4.60878007	     -4.04477718	     -2.56032678	     -0.36804983	      0.88601924	      0.02249892	    -22.87474556	      3.54827219	     -0.91630408	    -26.05860861	      3.13204722	      7.38794385	     67.02827911	     20.18052295	     -0.42681249	     -3.03154643	    -17.01033526	      8.54598372	     -5.91192865	     35.13213705	    -14.29102070	      3.22079445	      3.32863503
      1.10000000	      4.29909149	     -3.60897897	     -2.39902509	     -0.35968418	      0.88527974	      0.02178292	    -21.63125338	      3.12607322	     -0.92660279	    -28.37500611	      1.94560799	      6.83197424	     67.52935504	     20.73794735	      0.17285441	     -2.67575245	    -18.43446808	      8.48193119	     -6.23197794	     35.11637014	    -13.91600465	      2.77172999	      2.97503641
